<svg width="21" height="22" viewBox="0 0 21 22" fill="none" xmlns="http://www.w3.org/2000/svg">
<path d="M16 6.15674H17M4.5 1.15674H16.5C18.7091 1.15674 20.5 2.9476 20.5 5.15674V17.1567C20.5 19.3659 18.7091 21.1567 16.5 21.1567H4.5C2.29086 21.1567 0.5 19.3659 0.5 17.1567V5.15674C0.5 2.9476 2.29086 1.15674 4.5 1.15674ZM10.5 15.1567C8.29086 15.1567 6.5 13.3659 6.5 11.1567C6.5 8.9476 8.29086 7.15674 10.5 7.15674C12.7091 7.15674 14.5 8.9476 14.5 11.1567C14.5 13.3659 12.7091 15.1567 10.5 15.1567Z" stroke="#F2F2F2"/>
</svg>
