<svg width="250" height="67" viewBox="0 0 250 67" fill="none" xmlns="http://www.w3.org/2000/svg">
<g clip-path="url(#clip0_3674_2113)">
<path d="M94.0069 12.6544C93.3071 13.1851 92.4267 13.452 91.3691 13.452C90.6218 13.452 89.9726 13.3312 89.4248 13.0897C88.877 12.8482 88.4147 12.5082 88.041 12.0729C87.6673 11.6376 87.3887 11.1164 87.2019 10.5127C87.015 9.9089 86.9105 9.24795 86.8852 8.53616C86.8852 7.82436 86.9929 7.16976 87.2114 6.57872C87.4298 5.98767 87.7338 5.47289 88.1233 5.03755C88.516 4.60221 88.9783 4.2622 89.5166 4.0207C90.0518 3.7792 90.6408 3.65845 91.2804 3.65845C92.1133 3.65845 92.8004 3.83004 93.3514 4.17641C93.8992 4.51959 94.3394 4.95811 94.6719 5.49196C95.0044 6.02263 95.2324 6.60414 95.359 7.23331C95.4857 7.86249 95.5363 8.45989 95.5142 9.02869H88.5192C88.5065 9.43861 88.554 9.82946 88.6648 10.1981C88.7725 10.5667 88.9467 10.894 89.1905 11.1768C89.4311 11.4596 89.7383 11.6884 90.112 11.8568C90.4856 12.0252 90.9258 12.111 91.4324 12.111C92.0816 12.111 92.6167 11.9585 93.0316 11.6566C93.4464 11.3547 93.7219 10.894 93.8549 10.2775H95.3717C95.1659 11.3293 94.7162 12.1206 94.0164 12.6544H94.0069ZM93.6364 6.63274C93.4971 6.30544 93.3102 6.0258 93.0759 5.79066C92.8416 5.55551 92.5629 5.36803 92.2431 5.22821C91.9233 5.08839 91.5718 5.01849 91.1854 5.01849C90.7991 5.01849 90.4286 5.08839 90.1088 5.22821C89.789 5.36803 89.5166 5.55869 89.2855 5.80019C89.0575 6.04169 88.877 6.3245 88.744 6.64227C88.611 6.96321 88.5318 7.30322 88.5097 7.66548H93.877C93.8517 7.30322 93.7726 6.95686 93.6332 6.63274H93.6364Z" fill="white"/>
<mask id="mask0_3674_2113" style="mask-type:luminance" maskUnits="userSpaceOnUse" x="86" y="3" width="10" height="11">
<path d="M94.0069 12.6544C93.3071 13.1851 92.4267 13.452 91.3691 13.452C90.6218 13.452 89.9726 13.3312 89.4248 13.0897C88.877 12.8482 88.4147 12.5082 88.041 12.0729C87.6673 11.6376 87.3887 11.1164 87.2019 10.5127C87.015 9.9089 86.9105 9.24795 86.8852 8.53616C86.8852 7.82436 86.9929 7.16976 87.2114 6.57872C87.4298 5.98767 87.7338 5.47289 88.1233 5.03755C88.516 4.60221 88.9783 4.2622 89.5166 4.0207C90.0518 3.7792 90.6408 3.65845 91.2804 3.65845C92.1133 3.65845 92.8004 3.83004 93.3514 4.17641C93.8992 4.51959 94.3394 4.95811 94.6719 5.49196C95.0044 6.02263 95.2324 6.60414 95.359 7.23331C95.4857 7.86249 95.5363 8.45989 95.5142 9.02869H88.5192C88.5065 9.43861 88.554 9.82946 88.6648 10.1981C88.7725 10.5667 88.9467 10.894 89.1905 11.1768C89.4311 11.4596 89.7383 11.6884 90.112 11.8568C90.4856 12.0252 90.9258 12.111 91.4324 12.111C92.0816 12.111 92.6167 11.9585 93.0316 11.6566C93.4464 11.3547 93.7219 10.894 93.8549 10.2775H95.3717C95.1659 11.3293 94.7162 12.1206 94.0164 12.6544H94.0069ZM93.6364 6.63274C93.4971 6.30544 93.3102 6.0258 93.0759 5.79066C92.8416 5.55551 92.5629 5.36803 92.2431 5.22821C91.9233 5.08839 91.5718 5.01849 91.1854 5.01849C90.7991 5.01849 90.4286 5.08839 90.1088 5.22821C89.789 5.36803 89.5166 5.55869 89.2855 5.80019C89.0575 6.04169 88.877 6.3245 88.744 6.64227C88.611 6.96321 88.5318 7.30322 88.5097 7.66548H93.877C93.8517 7.30322 93.7726 6.95686 93.6332 6.63274H93.6364Z" fill="white"/>
</mask>
<g mask="url(#mask0_3674_2113)">
<path d="M95.9322 7.50342H87.9587V9.38142H95.9322V7.50342Z" fill="white"/>
<path d="M89.7985 13.8683L95.0329 13.7889L95.72 10.0964H93.7726L93.2026 10.6144H89.2032L89.7985 13.8683Z" fill="white"/>
<path d="M93.6142 13.8269C93.6142 13.8269 85.6756 11.4564 90.2355 5.07566C91.7998 2.88625 90.1405 3.18813 88.7028 4.3575C86.4736 6.17195 86.3342 8.52342 86.3342 8.52342L87.1227 11.8822L89.6275 13.8555L93.6142 13.8238V13.8269Z" fill="white"/>
<path opacity="0.15" d="M90.9765 11.3038C90.9765 11.3038 88.8454 10.341 88.8517 10.4363C88.9625 11.8345 91.3755 13.6998 93.6364 10.878C93.7789 10.7001 92.8258 10.4586 92.8258 10.4586C92.8258 10.4586 91.6731 10.4586 90.9765 11.3038Z" fill="white"/>
<path d="M92.8796 6.25455C92.8796 6.25455 85.3589 3.40419 87.9841 13.2518C87.9841 13.2518 84.238 6.40072 88.174 4.18907C92.1608 1.94564 95.3021 4.28122 95.3021 4.28122L92.8764 6.25455H92.8796Z" fill="white"/>
<path d="M93.1297 6.07027C92.8637 5.77157 92.1164 5.40296 91.7333 5.29174C90.7453 4.99622 88.858 5.09155 87.6167 5.30763C86.6034 5.48558 88.136 3.67431 89.3203 3.45823C90.9099 3.16906 93.5509 3.55674 93.5509 3.55674L95.9987 5.37436L95.8847 9.29559C95.8847 9.29559 94.238 8.62828 93.6427 7.16338C93.5287 6.88375 93.3292 6.29906 93.1297 6.07344V6.07027Z" fill="white"/>
<path opacity="0.1" d="M95.549 7.65278C94.7827 5.5301 92.7181 2.62572 86.7902 4.50372C86.5274 4.58634 88.1012 3.45827 88.2848 3.42331C91.4926 2.81956 95.226 3.22948 96.0778 7.4367L95.549 7.65278Z" fill="white"/>
<path d="M89.7985 9.50536C89.1937 9.61022 88.5287 10.0424 88.4685 9.17171C88.4083 8.30103 88.5603 7.29371 88.7092 7.23333C88.8612 7.17296 89.6307 7.27782 90.1436 7.27782C90.986 7.27782 90.4318 8.56477 93.3292 9.32424C94.2982 9.57845 89.7953 9.50536 89.7953 9.50536H89.7985Z" fill="white"/>
</g>
<path d="M70.3999 3.87453V5.36168H70.4347C71.0744 4.22407 72.0845 3.65527 73.4715 3.65527C74.0858 3.65527 74.5988 3.74107 75.0073 3.90949C75.4158 4.0779 75.7483 4.31623 76.0016 4.6181C76.2549 4.91998 76.4323 5.27906 76.5336 5.69851C76.6349 6.11478 76.6888 6.57872 76.6888 7.08715V13.255H75.153V6.90602C75.153 6.32451 74.9851 5.86692 74.6463 5.52692C74.3075 5.19008 73.8452 5.01849 73.253 5.01849C72.7843 5.01849 72.3759 5.09158 72.0339 5.23775C71.6919 5.38392 71.4037 5.58729 71.1757 5.85421C70.9477 6.12114 70.7736 6.43255 70.6596 6.78845C70.5456 7.14434 70.4886 7.5352 70.4886 7.95782V13.255H68.9528V3.87453H70.3999Z" fill="white"/>
<mask id="mask1_3674_2113" style="mask-type:luminance" maskUnits="userSpaceOnUse" x="68" y="3" width="9" height="11">
<path d="M70.3999 3.87453V5.36168H70.4347C71.0744 4.22407 72.0845 3.65527 73.4715 3.65527C74.0858 3.65527 74.5988 3.74107 75.0073 3.90949C75.4158 4.0779 75.7483 4.31623 76.0016 4.6181C76.2549 4.91998 76.4323 5.27906 76.5336 5.69851C76.6349 6.11478 76.6888 6.57872 76.6888 7.08715V13.255H75.153V6.90602C75.153 6.32451 74.9851 5.86692 74.6463 5.52692C74.3075 5.19008 73.8452 5.01849 73.253 5.01849C72.7843 5.01849 72.3759 5.09158 72.0339 5.23775C71.6919 5.38392 71.4037 5.58729 71.1757 5.85421C70.9477 6.12114 70.7736 6.43255 70.6596 6.78845C70.5456 7.14434 70.4886 7.5352 70.4886 7.95782V13.255H68.9528V3.87453H70.3999Z" fill="white"/>
</mask>
<g mask="url(#mask1_3674_2113)">
<path d="M74.8711 13.4838L77.1131 13.4679V5.60002L74.5386 4.85327L74.8711 13.4838Z" fill="white"/>
<path d="M71.0205 13.5347C71.0205 13.5347 71.8153 10.9068 74.3708 3.27405C74.9819 1.44372 68.5157 3.75706 68.5157 3.75706L68.6329 13.5029L71.0237 13.5347H71.0205Z" fill="white"/>
<path d="M73.6615 5.49217C74.3423 5.49852 68.8989 3.76034 70.0579 13.8494C70.0579 13.8494 69.3074 14.6851 68.6298 13.4999C68.5918 13.4331 68.6044 4.14484 68.6551 4.11306C68.8958 3.96053 69.1681 3.82389 69.4721 3.70632C75.2986 1.4184 77.8636 4.98056 77.8636 4.98056L73.6615 5.49534V5.49217Z" fill="white"/>
<path d="M71.7805 6.07677C71.7805 6.07677 70.6849 7.04278 70.0547 5.71134C68.9464 3.36623 73.7122 2.94678 73.7122 2.94678L77.2049 3.80475L77.3253 12.9437C77.3253 12.9437 75.6026 7.47494 75.438 6.98241C74.6431 4.60234 71.7552 5.53021 71.7805 6.07995V6.07677Z" fill="white"/>
<path opacity="0.1" d="M77.0719 5.79086C75.7324 4.6469 72.664 2.85788 68.7627 5.90525C68.7342 5.9275 68.7216 3.68089 68.7627 3.67136C71.1092 3.00405 74.4278 2.81339 76.9167 3.94146C76.9674 3.9637 76.9769 4.03361 77.0054 4.08128C77.3157 4.5897 77.1099 5.81946 77.0719 5.78768V5.79086Z" fill="white"/>
</g>
<path d="M68.0503 13.2168C67.7843 13.3726 67.4169 13.452 66.9483 13.452C66.5493 13.452 66.2358 13.3408 65.9983 13.1152C65.764 12.8927 65.6468 12.5273 65.6468 12.0189C65.2257 12.5273 64.7348 12.8927 64.1743 13.1152C63.6139 13.3376 63.009 13.452 62.3567 13.452C61.9356 13.452 61.5334 13.4043 61.1534 13.3058C60.7734 13.2105 60.4441 13.058 60.1686 12.8514C59.8899 12.6449 59.6714 12.3779 59.5099 12.0443C59.3484 11.7106 59.2661 11.3103 59.2661 10.8368C59.2661 10.3061 59.3579 9.87077 59.5384 9.53076C59.7189 9.19075 59.9564 8.91747 60.2509 8.70457C60.5454 8.49167 60.8842 8.33279 61.2642 8.22474C61.6442 8.1167 62.0337 8.02455 62.4295 7.95147C62.8507 7.86567 63.2529 7.80212 63.6329 7.76081C64.0128 7.7195 64.3453 7.65912 64.6367 7.57968C64.9248 7.50024 65.156 7.38584 65.3238 7.23649C65.4916 7.08396 65.5771 6.86471 65.5771 6.57554C65.5771 6.23871 65.5138 5.96543 65.3872 5.75888C65.2605 5.55233 65.099 5.39663 64.8995 5.28859C64.7 5.18055 64.4783 5.10746 64.2313 5.06933C63.9843 5.03437 63.7405 5.01531 63.4999 5.01531C62.8507 5.01531 62.306 5.13924 61.8722 5.38709C61.4384 5.63495 61.2041 6.10207 61.1661 6.79162H59.6303C59.6556 6.21011 59.7759 5.72075 59.9913 5.32354C60.2098 4.92316 60.4979 4.60221 60.8589 4.35435C61.2199 4.1065 61.6316 3.92855 62.0971 3.82051C62.5594 3.71247 63.0565 3.65845 63.5885 3.65845C64.0097 3.65845 64.4277 3.69022 64.8457 3.7506C65.2605 3.81097 65.6373 3.9349 65.9761 4.12239C66.3118 4.30987 66.5841 4.57044 66.79 4.91045C66.9958 5.24728 67.0971 5.68897 67.0971 6.23235V11.0465C67.0971 11.4088 67.1193 11.6725 67.1604 11.8441C67.2016 12.0125 67.3441 12.0983 67.5848 12.0983C67.7178 12.0983 67.8729 12.0729 68.0534 12.0252V13.2232L68.0503 13.2168ZM65.555 8.40905C65.3618 8.55204 65.1085 8.66008 64.795 8.72364C64.4815 8.79037 64.1522 8.84439 63.8102 8.8857C63.4682 8.92701 63.1199 8.97467 62.7715 9.02869C62.4232 9.08271 62.1097 9.16851 61.8311 9.28926C61.5524 9.41001 61.3276 9.58161 61.1534 9.80404C60.9792 10.0265 60.8906 10.3315 60.8906 10.716C60.8906 10.9702 60.9412 11.1831 61.0457 11.3579C61.1471 11.5327 61.2801 11.6725 61.4447 11.7837C61.6062 11.8918 61.7962 11.9712 62.0147 12.0189C62.23 12.0665 62.4612 12.092 62.7019 12.092C63.2085 12.092 63.6424 12.022 64.0033 11.8854C64.3643 11.7456 64.6588 11.574 64.89 11.3611C65.118 11.1514 65.289 10.9226 65.3967 10.6747C65.5043 10.4269 65.5581 10.1949 65.5581 9.97881V8.40905H65.555Z" fill="white"/>
<mask id="mask2_3674_2113" style="mask-type:luminance" maskUnits="userSpaceOnUse" x="59" y="3" width="10" height="11">
<path d="M68.0503 13.2168C67.7843 13.3726 67.4169 13.452 66.9483 13.452C66.5493 13.452 66.2358 13.3408 65.9983 13.1152C65.764 12.8927 65.6468 12.5273 65.6468 12.0189C65.2257 12.5273 64.7348 12.8927 64.1743 13.1152C63.6139 13.3376 63.009 13.452 62.3567 13.452C61.9356 13.452 61.5334 13.4043 61.1534 13.3058C60.7734 13.2105 60.4441 13.058 60.1686 12.8514C59.8899 12.6449 59.6714 12.3779 59.5099 12.0443C59.3484 11.7106 59.2661 11.3103 59.2661 10.8368C59.2661 10.3061 59.3579 9.87077 59.5384 9.53076C59.7189 9.19075 59.9564 8.91747 60.2509 8.70457C60.5454 8.49167 60.8842 8.33279 61.2642 8.22474C61.6442 8.1167 62.0337 8.02455 62.4295 7.95147C62.8507 7.86567 63.2529 7.80212 63.6329 7.76081C64.0128 7.7195 64.3453 7.65912 64.6367 7.57968C64.9248 7.50024 65.156 7.38584 65.3238 7.23649C65.4916 7.08396 65.5771 6.86471 65.5771 6.57554C65.5771 6.23871 65.5138 5.96543 65.3872 5.75888C65.2605 5.55233 65.099 5.39663 64.8995 5.28859C64.7 5.18055 64.4783 5.10746 64.2313 5.06933C63.9843 5.03437 63.7405 5.01531 63.4999 5.01531C62.8507 5.01531 62.306 5.13924 61.8722 5.38709C61.4384 5.63495 61.2041 6.10207 61.1661 6.79162H59.6303C59.6556 6.21011 59.7759 5.72075 59.9913 5.32354C60.2098 4.92316 60.4979 4.60221 60.8589 4.35435C61.2199 4.1065 61.6316 3.92855 62.0971 3.82051C62.5594 3.71247 63.0565 3.65845 63.5885 3.65845C64.0097 3.65845 64.4277 3.69022 64.8457 3.7506C65.2605 3.81097 65.6373 3.9349 65.9761 4.12239C66.3118 4.30987 66.5841 4.57044 66.79 4.91045C66.9958 5.24728 67.0971 5.68897 67.0971 6.23235V11.0465C67.0971 11.4088 67.1193 11.6725 67.1604 11.8441C67.2016 12.0125 67.3441 12.0983 67.5848 12.0983C67.7178 12.0983 67.8729 12.0729 68.0534 12.0252V13.2232L68.0503 13.2168ZM65.555 8.40905C65.3618 8.55204 65.1085 8.66008 64.795 8.72364C64.4815 8.79037 64.1522 8.84439 63.8102 8.8857C63.4682 8.92701 63.1199 8.97467 62.7715 9.02869C62.4232 9.08271 62.1097 9.16851 61.8311 9.28926C61.5524 9.41001 61.3276 9.58161 61.1534 9.80404C60.9792 10.0265 60.8906 10.3315 60.8906 10.716C60.8906 10.9702 60.9412 11.1831 61.0457 11.3579C61.1471 11.5327 61.2801 11.6725 61.4447 11.7837C61.6062 11.8918 61.7962 11.9712 62.0147 12.0189C62.23 12.0665 62.4612 12.092 62.7019 12.092C63.2085 12.092 63.6424 12.022 64.0033 11.8854C64.3643 11.7456 64.6588 11.574 64.89 11.3611C65.118 11.1514 65.289 10.9226 65.3967 10.6747C65.5043 10.4269 65.5581 10.1949 65.5581 9.97881V8.40905H65.555Z" fill="white"/>
</mask>
<g mask="url(#mask2_3674_2113)">
<path d="M67.3251 4.64648C67.3251 4.64648 65.7038 6.85496 63.9369 7.2045C62.1699 7.55404 61.0109 7.75741 61.0109 7.75741L61.8501 9.53055C61.8501 9.53055 63.2402 9.32718 63.9052 9.09521C64.5702 8.86324 66.7425 8.57089 67.4391 7.81779L67.322 4.64966L67.3251 4.64648Z" fill="white"/>
<path d="M68.5696 11.6534C64.3675 11.3357 60.1084 9.06046 64.4277 3.2517C64.5353 3.10552 61.8089 3.19132 61.5651 3.32796C59.3294 4.58949 57.9963 7.64004 58.9811 11.5073C59.6778 14.24 64.4403 13.9954 68.3954 13.541C68.5506 13.5219 68.6456 11.6566 68.5696 11.6503V11.6534Z" fill="white"/>
<path d="M67.702 9.8484C67.702 9.8484 62.4264 16.2832 59.0128 7.08702C58.978 6.99487 58.6835 10.0295 58.693 10.1376C58.8101 11.3578 58.807 12.2348 60.6341 13.4233C63.7627 15.457 67.0591 11.1894 67.702 9.8484Z" fill="white"/>
<path d="M60.8368 13.5124C60.8368 13.5124 60.6816 12.2508 64.0509 11.5359C64.0509 11.5359 65.5582 10.0837 65.4474 5.88281C65.4474 5.88281 69.0605 9.03823 68.367 13.398C68.367 13.398 64.8805 14.7612 60.8368 13.5156V13.5124Z" fill="white"/>
<path d="M59.6176 5.59999C61.0426 5.1583 63.1262 4.60221 64.8077 5.46017C65.9065 6.02262 67.0085 8.33913 67.4138 11.4183C67.4264 11.52 67.4898 5.8129 67.4676 5.75252C67.2681 5.16783 67.1003 4.42108 66.5145 4.03658C64.5797 2.76234 62.1161 3.3089 60.5201 4.01434C60.4378 4.05247 59.5226 5.62859 59.6144 5.59999H59.6176Z" fill="white"/>
<path opacity="0.2" d="M59.3516 5.0025C59.3516 5.0025 66.7045 -0.0436258 68.4556 10.1281C68.4556 10.1281 69.1871 4.92306 66.1028 3.01328C63.0186 1.10351 59.9058 3.99518 59.3516 5.0025Z" fill="white"/>
<path opacity="0.2" d="M59.2281 11.3992C59.5543 9.78491 60.5359 8.04037 63.1927 7.63999C63.4619 7.59868 63.6139 7.35718 63.6139 7.35718C63.6139 7.35718 61.2136 7.52559 60.2858 8.1357C57.2554 10.1313 59.2091 11.4881 59.225 11.3992H59.2281Z" fill="white"/>
<path opacity="0.3" d="M65.4727 8.65674C65.4727 8.65674 65.8115 13.6584 61.0711 10.6618C61.0711 10.6618 61.1851 12.9466 63.8957 12.3206C65.9097 11.8535 65.65 9.27003 65.4758 8.65674H65.4727Z" fill="white"/>
</g>
<path d="M51.6979 3.87453V5.36168H51.7328C52.3724 4.22407 53.3826 3.65527 54.7695 3.65527C55.3839 3.65527 55.8968 3.74107 56.3053 3.90949C56.7138 4.0779 57.0463 4.31623 57.2996 4.6181C57.553 4.91998 57.7303 5.27906 57.8316 5.69851C57.933 6.11478 57.9868 6.57872 57.9868 7.08715V13.255H56.451V6.90602C56.451 6.32451 56.2832 5.86692 55.9443 5.52692C55.6055 5.19008 55.1432 5.01849 54.551 5.01849C54.0824 5.01849 53.6739 5.09158 53.3319 5.23775C52.9899 5.38392 52.7017 5.58729 52.4737 5.85421C52.2458 6.12114 52.0716 6.43255 51.9576 6.78845C51.8436 7.14434 51.7866 7.5352 51.7866 7.95782V13.255H50.2508V3.87453H51.6979Z" fill="white"/>
<mask id="mask3_3674_2113" style="mask-type:luminance" maskUnits="userSpaceOnUse" x="50" y="3" width="8" height="11">
<path d="M51.6979 3.87453V5.36168H51.7328C52.3724 4.22407 53.3826 3.65527 54.7695 3.65527C55.3839 3.65527 55.8968 3.74107 56.3053 3.90949C56.7138 4.0779 57.0463 4.31623 57.2996 4.6181C57.553 4.91998 57.7303 5.27906 57.8316 5.69851C57.933 6.11478 57.9868 6.57872 57.9868 7.08715V13.255H56.451V6.90602C56.451 6.32451 56.2832 5.86692 55.9443 5.52692C55.6055 5.19008 55.1432 5.01849 54.551 5.01849C54.0824 5.01849 53.6739 5.09158 53.3319 5.23775C52.9899 5.38392 52.7017 5.58729 52.4737 5.85421C52.2458 6.12114 52.0716 6.43255 51.9576 6.78845C51.8436 7.14434 51.7866 7.5352 51.7866 7.95782V13.255H50.2508V3.87453H51.6979Z" fill="white"/>
</mask>
<g mask="url(#mask3_3674_2113)">
<path d="M56.147 13.5346L58.389 13.5155V5.6508L55.8145 4.90405L56.147 13.5346Z" fill="white"/>
<path d="M52.2964 13.5823C52.2964 13.5823 53.0912 10.9544 55.6467 3.32166C56.2578 1.49133 49.7916 3.80466 49.7916 3.80466L49.9088 13.5505L52.2996 13.5823H52.2964Z" fill="white"/>
<path d="M54.9374 5.54295C55.6182 5.5493 50.1748 3.81112 51.3338 13.9002C51.3338 13.9002 50.5833 14.7359 49.9056 13.5507C49.8676 13.4839 49.8803 4.19562 49.931 4.16384C50.1716 4.01131 50.444 3.87467 50.748 3.7571C56.5745 1.46919 59.1394 5.03134 59.1394 5.03134L54.9374 5.54612V5.54295Z" fill="white"/>
<path d="M53.0564 6.12755C53.0564 6.12755 51.9608 7.09356 51.3306 5.76212C50.2223 3.41701 54.988 2.99756 54.988 2.99756L58.4808 3.85553L58.6011 12.9945C58.6011 12.9945 57.1477 7.45264 56.983 6.9601C56.1882 4.58003 53.0342 5.58417 53.0564 6.13073V6.12755Z" fill="white"/>
<path opacity="0.1" d="M58.3478 5.84164C57.0083 4.69768 53.9399 2.90866 50.0386 5.95604C50.0101 5.97828 49.9974 3.73167 50.0386 3.72214C52.3851 3.05483 55.7037 2.86417 58.1926 3.99224C58.2433 4.01449 58.2528 4.08439 58.2813 4.13206C58.5916 4.64048 58.3858 5.87024 58.3478 5.83846V5.84164Z" fill="white"/>
</g>
<path d="M48.5218 3.8746V13.2519H46.986V3.8746H48.5218ZM48.7118 1.31341C48.7118 1.8409 48.2843 2.26988 47.7587 2.26988C47.233 2.26988 46.8055 1.8409 46.8055 1.31341C46.8055 0.785918 47.233 0.356934 47.7587 0.356934C48.2843 0.356934 48.7118 0.785918 48.7118 1.31341Z" fill="white"/>
<mask id="mask4_3674_2113" style="mask-type:luminance" maskUnits="userSpaceOnUse" x="46" y="0" width="3" height="14">
<path d="M48.5218 3.8746V13.2519H46.986V3.8746H48.5218ZM48.7118 1.31341C48.7118 1.8409 48.2843 2.26988 47.7587 2.26988C47.233 2.26988 46.8055 1.8409 46.8055 1.31341C46.8055 0.785918 47.233 0.356934 47.7587 0.356934C48.2843 0.356934 48.7118 0.785918 48.7118 1.31341Z" fill="white"/>
</mask>
<g mask="url(#mask4_3674_2113)">
<path d="M48.8733 -0.157715H46.511V13.6842H48.8733V-0.157715Z" fill="white"/>
<path d="M45.9569 13.592L47.8157 3.34407L48.0785 2.8134L47.3249 2.41301L47.6384 -0.157715L48.5662 0.328467L49.1837 13.5539L45.9569 13.592Z" fill="white"/>
<path d="M46.5744 14.3291L48.5884 5.05664L48.9399 14.0049L46.5744 14.3291Z" fill="white"/>
<path opacity="0.2" d="M47.0557 0.51906C47.7904 0.684298 48.5345 1.08786 49.19 1.89181C49.2217 1.92994 49.6618 1.06879 49.6302 1.02431C49.3167 0.579435 48.905 0.185406 48.3667 -0.103762C48.2115 -0.186381 48.0564 -0.256289 47.9012 -0.316665C47.746 -0.373863 46.9987 0.506349 47.0557 0.51906Z" fill="white"/>
<path opacity="0.15" d="M48.6897 4.80879C48.6675 4.80562 47.176 3.62988 47.176 3.62988L48.791 3.70297L48.6897 4.80562V4.80879Z" fill="white"/>
</g>
<path d="M40.8682 5.23464V3.8746H42.442V2.47643C42.442 1.7138 42.6605 1.13864 43.1006 0.744609C43.5408 0.350579 44.1836 0.153564 45.0259 0.153564C45.1716 0.153564 45.3362 0.166275 45.5231 0.188519C45.7099 0.21394 45.8746 0.248894 46.0202 0.296559V1.63753C45.8872 1.58987 45.7416 1.55491 45.5864 1.53902C45.4312 1.51996 45.2856 1.51043 45.1526 1.51043C44.7789 1.51043 44.4908 1.58351 44.2849 1.72968C44.0791 1.87586 43.9778 2.15231 43.9778 2.56541V3.87143H45.7859V5.23147H43.9778V13.2487H42.442V5.23464H40.8682Z" fill="white"/>
<mask id="mask5_3674_2113" style="mask-type:luminance" maskUnits="userSpaceOnUse" x="40" y="0" width="7" height="14">
<path d="M40.8682 5.23464V3.8746H42.442V2.47643C42.442 1.7138 42.6605 1.13864 43.1006 0.744609C43.5408 0.350579 44.1836 0.153564 45.0259 0.153564C45.1716 0.153564 45.3362 0.166275 45.5231 0.188519C45.7099 0.21394 45.8746 0.248894 46.0202 0.296559V1.63753C45.8872 1.58987 45.7416 1.55491 45.5864 1.53902C45.4312 1.51996 45.2856 1.51043 45.1526 1.51043C44.7789 1.51043 44.4908 1.58351 44.2849 1.72968C44.0791 1.87586 43.9778 2.15231 43.9778 2.56541V3.87143H45.7859V5.23147H43.9778V13.2487H42.442V5.23464H40.8682Z" fill="white"/>
</mask>
<g mask="url(#mask5_3674_2113)">
<path d="M46.5712 -0.669434H39.9594V14.0908H46.5712V-0.669434Z" fill="white"/>
<path opacity="0.36" d="M42.1601 5.47316L42.4483 5.21895C42.4483 5.21895 43.1228 -0.0464316 45.0259 -0.100452L42.4483 -0.21167L40.865 3.18525L40.5895 5.36195L42.1601 5.47316Z" fill="white"/>
<path opacity="0.2" d="M46.8404 0.296732C46.8404 0.296732 43.9366 0.0139199 43.9271 2.30501C43.9271 2.30501 42.8061 11.9079 42.765 13.2997C42.7238 14.6915 42.7143 13.7001 42.7143 13.7001L44.6301 13.4999L44.9119 10.7004L44.5129 5.3937L44.9784 5.47632L46.986 1.61228L46.8372 0.296732H46.8404Z" fill="white"/>
<path opacity="0.15" d="M46.2514 5.22195C46.2197 5.21559 43.8828 3.38208 43.8828 3.38208L46.4097 3.49965L46.2514 5.22512V5.22195Z" fill="white"/>
<path d="M44.1519 13.3568C44.1392 13.3886 43.1323 13.5888 43.1323 13.5888L44.1392 7.39233L44.1487 13.3568H44.1519Z" fill="white"/>
<path opacity="0.2" d="M42.6763 0.903583C43.7498 0.643014 44.9879 0.719278 46.3559 1.43107C46.4192 1.46285 46.4762 -0.0751367 46.4066 -0.119624C45.7163 -0.54543 44.9278 -0.837775 44.0348 -0.88544C43.7751 -0.898151 43.525 -0.894973 43.2875 -0.875907C43.05 -0.856841 42.5972 0.919471 42.6795 0.900405L42.6763 0.903583Z" fill="white"/>
</g>
<path d="M83.7883 5.52054C83.4019 5.19324 82.8826 5.03118 82.2335 5.03118C81.6793 5.03118 81.2138 5.13287 80.8402 5.33941C80.4665 5.54596 80.1688 5.81606 79.944 6.15607C79.7223 6.49608 79.5608 6.88376 79.4658 7.32545C79.3677 7.76715 79.3202 8.22473 79.3202 8.69502C79.3202 9.13036 79.3708 9.55299 79.4753 9.96609C79.5767 10.376 79.7382 10.7446 79.9535 11.0624C80.172 11.3833 80.4538 11.6407 80.8022 11.8346C81.1505 12.0284 81.5685 12.1237 82.0498 12.1237C82.8098 12.1237 83.4019 11.9235 83.8294 11.5263C84.2569 11.1259 84.5197 10.5635 84.6147 9.83898H86.1885C86.0207 10.9988 85.5901 11.8949 84.8966 12.5241C84.2031 13.1533 83.2594 13.4679 82.0656 13.4679C81.3531 13.4679 80.723 13.3535 80.1752 13.1247C79.6273 12.8959 79.1682 12.5686 78.8009 12.146C78.4335 11.7233 78.1549 11.2181 77.968 10.6302C77.7812 10.0424 77.6862 9.40046 77.6862 8.6982C77.6862 7.99594 77.778 7.34134 77.9585 6.72805C78.139 6.11794 78.4145 5.58409 78.7819 5.13287C79.1492 4.67846 79.6115 4.32256 80.1657 4.06199C80.7198 3.80143 81.3658 3.67114 82.1005 3.67114C82.6293 3.67114 83.1264 3.7347 83.5919 3.8618C84.0574 3.98891 84.4659 4.18592 84.8206 4.45285C85.1752 4.71977 85.4697 5.05342 85.6977 5.46017C85.9257 5.86691 86.0714 6.34673 86.1315 6.90282H84.5419C84.4216 6.31178 84.1682 5.85102 83.7819 5.52372L83.7883 5.52054Z" fill="white"/>
<mask id="mask6_3674_2113" style="mask-type:luminance" maskUnits="userSpaceOnUse" x="77" y="3" width="10" height="11">
<path d="M83.7883 5.52054C83.4019 5.19324 82.8826 5.03118 82.2335 5.03118C81.6793 5.03118 81.2138 5.13287 80.8402 5.33941C80.4665 5.54596 80.1688 5.81606 79.944 6.15607C79.7223 6.49608 79.5608 6.88376 79.4658 7.32545C79.3677 7.76715 79.3202 8.22473 79.3202 8.69502C79.3202 9.13036 79.3708 9.55299 79.4753 9.96609C79.5767 10.376 79.7382 10.7446 79.9535 11.0624C80.172 11.3833 80.4538 11.6407 80.8022 11.8346C81.1505 12.0284 81.5685 12.1237 82.0498 12.1237C82.8098 12.1237 83.4019 11.9235 83.8294 11.5263C84.2569 11.1259 84.5197 10.5635 84.6147 9.83898H86.1885C86.0207 10.9988 85.5901 11.8949 84.8966 12.5241C84.2031 13.1533 83.2594 13.4679 82.0656 13.4679C81.3531 13.4679 80.723 13.3535 80.1752 13.1247C79.6273 12.8959 79.1682 12.5686 78.8009 12.146C78.4335 11.7233 78.1549 11.2181 77.968 10.6302C77.7812 10.0424 77.6862 9.40046 77.6862 8.6982C77.6862 7.99594 77.778 7.34134 77.9585 6.72805C78.139 6.11794 78.4145 5.58409 78.7819 5.13287C79.1492 4.67846 79.6115 4.32256 80.1657 4.06199C80.7198 3.80143 81.3658 3.67114 82.1005 3.67114C82.6293 3.67114 83.1264 3.7347 83.5919 3.8618C84.0574 3.98891 84.4659 4.18592 84.8206 4.45285C85.1752 4.71977 85.4697 5.05342 85.6977 5.46017C85.9257 5.86691 86.0714 6.34673 86.1315 6.90282H84.5419C84.4216 6.31178 84.1682 5.85102 83.7819 5.52372L83.7883 5.52054Z" fill="white"/>
</mask>
<g mask="url(#mask6_3674_2113)">
<path d="M80.552 13.7697L85.7579 13.687L86.4989 9.40674L84.4564 9.44805L83.9371 10.5316H79.9598L80.552 13.7697Z" fill="white"/>
<path d="M84.3456 13.7285C84.3456 13.7285 76.4481 11.3706 80.9858 5.02484C82.5438 2.84497 80.8908 3.14685 79.4627 4.30987C77.2429 6.11478 77.1068 8.45354 77.1068 8.45354L77.8921 11.7964L80.381 13.7602L84.3456 13.7316V13.7285Z" fill="white"/>
<path opacity="0.1" d="M83.174 11.3452C83.174 11.3452 81.3469 11.1895 81.3975 11.269C82.1227 12.378 83.4368 12.8737 85.8213 11.3706C86.0081 11.2531 85.0075 10.5317 85.0075 10.5317C85.0075 10.5317 83.8643 10.5317 83.174 11.3452Z" fill="white"/>
<path d="M83.6173 6.19425C83.6173 6.19425 76.1346 3.35978 78.7502 13.1565C78.7502 13.1565 75.0263 6.3436 78.9402 4.14148C82.9048 1.91077 86.0302 4.23046 86.0302 4.23046L83.6173 6.19425Z" fill="white"/>
<path d="M83.8643 6.00983C83.8643 6.00983 82.5122 5.80011 82.2937 5.47281C81.7522 4.66251 80.8339 3.94436 79.6591 4.38287C78.8294 4.69111 79.5039 4.07782 80.077 3.41051C81.1252 2.19029 84.2855 3.50584 84.2855 3.50584L86.7174 5.31393L86.3976 7.23323L84.3741 7.09342L83.8643 6.00666V6.00983Z" fill="white"/>
<path opacity="0.1" d="M86.5781 5.79046C85.2386 4.5893 81.7838 2.38083 77.5723 6.50861C77.3854 6.68973 78.2056 5.02464 78.3481 4.9166C80.8212 3.05767 84.2221 1.90736 86.9296 5.38054" fill="white"/>
</g>
<path d="M13.4961 11.002C13.8824 11.377 14.4334 11.5645 15.1554 11.5645C15.6715 11.5645 16.118 11.4342 16.4917 11.1768C16.8653 10.9162 17.0933 10.643 17.1757 10.3538H19.4303C19.0693 11.4755 18.5151 12.2795 17.771 12.7625C17.0237 13.2455 16.1243 13.487 15.0635 13.487C14.3289 13.487 13.6671 13.3694 13.0781 13.1343C12.4891 12.8991 11.9888 12.5623 11.5803 12.1301C11.1718 11.6948 10.8551 11.1768 10.6335 10.5731C10.4118 9.96931 10.301 9.30518 10.301 8.58067C10.301 7.85616 10.415 7.23016 10.643 6.62641C10.871 6.02265 11.1971 5.50152 11.6183 5.05982C12.0394 4.61813 12.5398 4.27176 13.1256 4.01755C13.7082 3.76334 14.3542 3.63623 15.0667 3.63623C15.8615 3.63623 16.5518 3.78876 17.1408 4.09699C17.7298 4.40522 18.2143 4.81832 18.5943 5.33628C18.9743 5.85424 19.2466 6.44846 19.4144 7.10941C19.5823 7.77354 19.6424 8.46627 19.5949 9.19078H12.8659C12.9007 10.0233 13.1129 10.6271 13.4961 11.002ZM16.3903 6.07667C16.0832 5.73984 15.6177 5.57143 14.9907 5.57143C14.5822 5.57143 14.2434 5.64133 13.9711 5.77797C13.6987 5.91779 13.4834 6.08938 13.3219 6.29275C13.1604 6.4993 13.0464 6.71538 12.9799 6.94418C12.9134 7.17297 12.8754 7.37951 12.8627 7.56064H17.03C16.9097 6.90922 16.6975 6.41351 16.3903 6.07667Z" fill="white"/>
<path d="M25.887 3.88742V5.60653H24.0092V10.2427C24.0092 10.6781 24.082 10.9672 24.2245 11.1102C24.3702 11.2564 24.6583 11.3263 25.089 11.3263C25.2346 11.3263 25.3708 11.32 25.5038 11.3073C25.6368 11.2945 25.7635 11.2755 25.8838 11.2532V13.2456C25.6685 13.2838 25.4278 13.306 25.1618 13.3187C24.8958 13.3314 24.6393 13.3378 24.386 13.3378C23.9902 13.3378 23.6133 13.3092 23.2587 13.2552C22.904 13.2011 22.5905 13.0963 22.3214 12.9374C22.0522 12.7817 21.8369 12.5561 21.6817 12.2669C21.5266 11.9777 21.4474 11.5964 21.4474 11.1261V5.60335H19.8958V3.88424H21.4474V1.08154H24.0092V3.88742H25.887Z" fill="white"/>
<path d="M29.8294 3.88745V13.2488H27.2676V3.88745H29.8294Z" fill="white"/>
<path d="M33.9871 0.322021V7.25568L37.2171 3.88736H40.2475L36.7294 7.32876L40.6433 13.2487H37.5401L34.9783 9.06694L33.9871 10.0266V13.2487H31.4254V0.322021H33.9871Z" fill="white"/>
<path d="M6.71003 0.360107V4.66266C6.02288 4.15423 5.19956 3.85553 4.30974 3.85553C1.92846 3.85871 0 5.99092 0 8.61885C0 11.2468 1.92846 13.379 4.30974 13.379C5.19956 13.379 6.02288 13.0803 6.71003 12.5719V13.2487H9.20848V0.360107H6.71003ZM4.35408 11.3516C3.15393 11.3516 2.18179 10.1282 2.18179 8.61885C2.18179 7.10946 3.15393 5.88606 4.35408 5.88606C5.55422 5.88606 6.5232 7.10946 6.5232 8.61885C6.5232 10.1282 5.55105 11.3516 4.35408 11.3516Z" fill="white"/>
<path d="M29.8927 1.53898C29.8927 2.28255 29.2911 2.88631 28.5501 2.88631C27.8091 2.88631 27.2075 2.28255 27.2075 1.53898C27.2075 0.795406 27.8059 0.19165 28.5501 0.19165C29.2943 0.19165 29.8927 0.795406 29.8927 1.53898Z" fill="white"/>
<path d="M0 45.3335V24.7136H10.9786C13.8159 24.7136 15.909 25.2189 17.2611 26.2294C18.6101 27.2399 19.2878 28.5332 19.2878 30.1029C19.2878 31.1452 18.9996 32.0731 18.4233 32.8866C17.847 33.7032 17.0078 34.3451 15.9122 34.8154C14.8165 35.2857 13.4644 35.5208 11.8621 35.5208L12.4479 33.9288C14.0534 33.9288 15.4372 34.1545 16.6025 34.6057C17.7678 35.0569 18.6671 35.7115 19.3036 36.5663C19.9401 37.4211 20.2567 38.4475 20.2567 39.6454C20.2567 41.4313 19.5189 42.8263 18.0401 43.8272C16.5613 44.8282 14.4049 45.3303 11.5676 45.3303H0V45.3335ZM6.81136 40.4716H10.9786C11.7418 40.4716 12.3149 40.335 12.6949 40.0585C13.0781 39.7821 13.2681 39.3817 13.2681 38.851C13.2681 38.3204 13.0781 37.92 12.6949 37.6435C12.3117 37.3671 11.7418 37.2304 10.9786 37.2304H6.33954V32.6355H10.0381C10.8203 32.6355 11.3934 32.5021 11.7544 32.2383C12.1154 31.9746 12.2959 31.5964 12.2959 31.1039C12.2959 30.6114 12.1154 30.211 11.7544 29.9536C11.3934 29.6994 10.8203 29.5691 10.0381 29.5691H6.80819V40.4685L6.81136 40.4716Z" fill="white"/>
<path d="M32.5242 45.8038C29.3734 45.8038 26.9161 44.949 25.1555 43.2394C23.3948 41.5298 22.5145 39.1338 22.5145 36.0515V24.7104H29.4431V35.845C29.4431 37.4179 29.728 38.5301 30.2949 39.1879C30.8617 39.8456 31.6248 40.1761 32.5843 40.1761C33.5438 40.1761 34.3323 39.8456 34.8896 39.1879C35.4469 38.5301 35.7256 37.4147 35.7256 35.845V24.7104H42.5369V36.0515C42.5369 39.1338 41.6566 41.5298 39.896 43.2394C38.1354 44.949 35.6781 45.8038 32.5273 45.8038H32.5242Z" fill="white"/>
<path d="M53.3667 45.8038C51.6441 45.8038 49.9816 45.6068 48.3761 45.216C46.7707 44.822 45.4502 44.3135 44.4116 43.6843L46.644 38.616C47.6225 39.1848 48.715 39.6424 49.9183 39.9855C51.1216 40.3287 52.2901 40.5003 53.4269 40.5003C54.0919 40.5003 54.6143 40.4558 54.9975 40.3669C55.3807 40.2779 55.6593 40.1508 55.8335 39.9824C56.0108 39.8171 56.0963 39.6138 56.0963 39.3786C56.0963 39.0068 55.8905 38.7113 55.4788 38.4952C55.0672 38.2791 54.5257 38.098 53.848 37.9487C53.1735 37.8025 52.4326 37.6436 51.6314 37.4784C50.8303 37.3131 50.0228 37.0907 49.209 36.8142C48.3951 36.5378 47.6542 36.1755 46.9765 35.7243C46.302 35.2731 45.7574 34.6789 45.3457 33.9416C44.934 33.2044 44.7282 32.2861 44.7282 31.1866C44.7282 29.9092 45.086 28.7462 45.7985 27.6944C46.5142 26.6457 47.5782 25.8037 48.9968 25.1745C50.4154 24.5453 52.1824 24.2307 54.2945 24.2307C55.6847 24.2307 57.0526 24.3769 58.4048 24.6724C59.7537 24.9679 60.9697 25.4192 62.0464 26.0261L59.9627 31.0627C58.9463 30.5511 57.9614 30.1698 57.0115 29.9124C56.0615 29.6582 55.1368 29.5279 54.2375 29.5279C53.5725 29.5279 53.0437 29.5882 52.6511 29.7058C52.2584 29.8234 51.9797 29.9823 51.8151 30.1761C51.6472 30.3731 51.5649 30.5892 51.5649 30.8244C51.5649 31.1771 51.7707 31.4567 52.1824 31.6633C52.5941 31.8698 53.1355 32.0414 53.8132 32.178C54.4877 32.3147 55.2318 32.464 56.0457 32.6197C56.8563 32.7786 57.6638 32.9915 58.4681 33.268C59.2693 33.5444 60.0102 33.9067 60.6847 34.3579C61.3592 34.8091 61.9039 35.4002 62.3155 36.1247C62.7272 36.8524 62.933 37.7548 62.933 38.8352C62.933 40.0936 62.5752 41.2471 61.8627 42.2957C61.147 43.3475 60.0862 44.1896 58.6771 44.8283C57.268 45.467 55.4978 45.7848 53.3635 45.7848L53.3667 45.8038Z" fill="white"/>
<path d="M64.9913 45.3335V24.7136H71.9199V45.3335H64.9913Z" fill="white"/>
<path d="M75.267 45.3335V24.7136H80.9605L91.4103 37.2622H88.7694V24.7136H95.5205V45.3335H89.827L79.3772 32.7849H82.0182V45.3335H75.267Z" fill="white"/>
<path d="M105.679 40.0903H115.955V45.3335H98.8708V24.7136H115.575V29.9568H105.682V40.0903H105.679ZM105.21 32.3718H114.368V37.3798H105.21V32.3718Z" fill="white"/>
<path d="M126.287 45.8038C124.565 45.8038 122.902 45.6068 121.297 45.216C119.691 44.822 118.371 44.3135 117.332 43.6843L119.565 38.616C120.543 39.1848 121.636 39.6424 122.839 39.9855C124.042 40.3287 125.211 40.5003 126.347 40.5003C127.012 40.5003 127.535 40.4558 127.918 40.3669C128.301 40.2779 128.58 40.1508 128.754 39.9824C128.931 39.8171 129.017 39.6138 129.017 39.3786C129.017 39.0068 128.811 38.7113 128.399 38.4952C127.988 38.2791 127.446 38.098 126.769 37.9487C126.094 37.8025 125.353 37.6436 124.552 37.4784C123.751 37.3131 122.943 37.0907 122.129 36.8142C121.316 36.5378 120.575 36.1755 119.897 35.7243C119.223 35.2731 118.678 34.6789 118.266 33.9416C117.855 33.2044 117.649 32.2861 117.649 31.1866C117.649 29.9092 118.007 28.7462 118.719 27.6944C119.435 26.6457 120.499 25.8037 121.917 25.1745C123.336 24.5453 125.103 24.2307 127.215 24.2307C128.605 24.2307 129.973 24.3769 131.325 24.6724C132.674 24.9679 133.89 25.4192 134.967 26.0261L132.883 31.0627C131.867 30.5511 130.882 30.1698 129.932 29.9124C128.982 29.6582 128.057 29.5279 127.158 29.5279C126.493 29.5279 125.964 29.5882 125.572 29.7058C125.179 29.8234 124.9 29.9823 124.736 30.1761C124.568 30.3731 124.485 30.5892 124.485 30.8244C124.485 31.1771 124.691 31.4567 125.103 31.6633C125.515 31.8698 126.056 32.0414 126.734 32.178C127.408 32.3147 128.152 32.464 128.966 32.6197C129.777 32.7786 130.584 32.9915 131.389 33.268C132.19 33.5444 132.931 33.9067 133.605 34.3579C134.28 34.8091 134.824 35.4002 135.236 36.1247C135.648 36.8524 135.854 37.7548 135.854 38.8352C135.854 40.0936 135.496 41.2471 134.783 42.2957C134.068 43.3475 133.007 44.1896 131.598 44.8283C130.188 45.467 128.418 45.7848 126.284 45.7848L126.287 45.8038Z" fill="white"/>
<path d="M145.572 45.8038C143.849 45.8038 142.187 45.6068 140.581 45.216C138.976 44.822 137.655 44.3135 136.617 43.6843L138.849 38.616C139.828 39.1848 140.92 39.6424 142.123 39.9855C143.327 40.3287 144.495 40.5003 145.632 40.5003C146.297 40.5003 146.823 40.4558 147.203 40.3669C147.586 40.2779 147.864 40.1508 148.039 39.9824C148.216 39.8171 148.305 39.6138 148.305 39.3786C148.305 39.0068 148.099 38.7113 147.687 38.4952C147.275 38.2791 146.734 38.098 146.06 37.9487C145.385 37.8025 144.644 37.6436 143.843 37.4784C143.042 37.3131 142.234 37.0907 141.42 36.8142C140.607 36.5378 139.866 36.1755 139.188 35.7243C138.513 35.2731 137.969 34.6789 137.557 33.9416C137.146 33.2044 136.94 32.2861 136.94 31.1866C136.94 29.9092 137.298 28.7462 138.01 27.6944C138.726 26.6457 139.79 25.8037 141.208 25.1745C142.627 24.5453 144.394 24.2307 146.506 24.2307C147.896 24.2307 149.264 24.3769 150.616 24.6724C151.968 24.9679 153.181 25.4192 154.258 26.0261L152.174 31.0627C151.158 30.5511 150.173 30.1698 149.223 29.9124C148.273 29.6582 147.348 29.5279 146.449 29.5279C145.784 29.5279 145.255 29.5882 144.863 29.7058C144.47 29.8234 144.191 29.9823 144.027 30.1761C143.859 30.3731 143.776 30.5892 143.776 30.8244C143.776 31.1771 143.982 31.4567 144.394 31.6633C144.806 31.8698 145.347 32.0414 146.025 32.178C146.699 32.3147 147.443 32.464 148.254 32.6197C149.065 32.7786 149.872 32.9915 150.676 33.268C151.478 33.5444 152.219 33.9067 152.893 34.3579C153.568 34.8091 154.112 35.4002 154.521 36.1247C154.932 36.8524 155.138 37.7548 155.138 38.8352C155.138 40.0936 154.78 41.2471 154.068 42.2957C153.352 43.3475 152.291 44.1896 150.882 44.8283C149.473 45.467 147.703 45.7848 145.569 45.7848L145.572 45.8038Z" fill="white"/>
<path d="M166.003 45.3335V24.7136H175.895C177.814 24.7136 179.47 25.0282 180.87 25.6574C182.27 26.2866 183.349 27.1858 184.113 28.352C184.876 29.5214 185.259 30.9005 185.259 32.4894C185.259 34.0782 184.876 35.4541 184.113 36.614C183.349 37.7738 182.266 38.6699 180.87 39.3086C179.47 39.9473 177.811 40.2651 175.895 40.2651H169.847L172.928 37.2908V45.3335H166H166.003ZM172.931 38.0566L169.85 34.9044H175.458C176.418 34.9044 177.127 34.6883 177.586 34.2561C178.045 33.824 178.276 33.2361 178.276 32.4894C178.276 31.7426 178.045 31.1547 177.586 30.7226C177.127 30.2904 176.418 30.0743 175.458 30.0743H169.85L172.931 26.9221V38.0566Z" fill="white"/>
<path d="M187.52 45.3335V24.7136H194.448V39.9441H203.723V45.3335H187.52Z" fill="white"/>
<path d="M203.695 45.3335L212.678 24.7136H219.49L228.473 45.3335H221.311L214.677 28.012H217.378L210.744 45.3335H203.698H203.695ZM209.037 41.7395L210.797 36.7315H220.25L222.01 41.7395H209.034H209.037Z" fill="white"/>
<path d="M229.588 45.3335V24.7136H235.282L245.731 37.2622H243.09V24.7136H249.842V45.3335H244.145L233.695 32.7849H236.336V45.3335H229.585H229.588Z" fill="white"/>
<path d="M4.9589 66.1567C4.25275 66.1567 3.59726 66.0391 2.98927 65.8104C2.38445 65.5784 1.8588 65.2479 1.4123 64.8189C0.96898 64.3899 0.620654 63.8879 0.373659 63.3095C0.123497 62.7312 0 62.0988 0 61.4061C0 60.7134 0.123497 60.081 0.373659 59.5027C0.620654 58.9244 0.972147 58.4223 1.4218 57.9933C1.87146 57.5643 2.39712 57.2339 2.99877 57.0019C3.60043 56.7699 4.25908 56.6555 4.97473 56.6555C5.76955 56.6555 6.4852 56.7922 7.12802 57.0686C7.76767 57.3451 8.306 57.7486 8.74299 58.2825L7.38135 59.544C7.06785 59.1849 6.71953 58.9148 6.3332 58.7369C5.95004 58.5589 5.53205 58.4668 5.07606 58.4668C4.64857 58.4668 4.25591 58.5367 3.89809 58.6765C3.54026 58.8163 3.22993 59.0165 2.97027 59.2803C2.70744 59.544 2.50478 59.8522 2.36228 60.2113C2.21979 60.5704 2.14696 60.9676 2.14696 61.4061C2.14696 61.8446 2.21979 62.2418 2.36228 62.6009C2.50478 62.96 2.70744 63.2714 2.97027 63.532C3.2331 63.7957 3.54026 63.9959 3.89809 64.1357C4.25591 64.2755 4.64857 64.3455 5.07606 64.3455C5.52889 64.3455 5.94688 64.2565 6.3332 64.0754C6.71636 63.8974 7.06469 63.6209 7.38135 63.2555L8.74299 64.517C8.306 65.0509 7.76767 65.4576 7.12802 65.7373C6.48837 66.0169 5.76638 66.1567 4.96206 66.1567H4.9589Z" fill="white"/>
<path d="M22.2675 66.1567C21.5424 66.1567 20.8742 66.0392 20.2599 65.8008C19.6456 65.5657 19.1136 65.232 18.6639 64.803C18.2143 64.3741 17.8659 63.872 17.6158 63.2937C17.3656 62.7153 17.2421 62.0861 17.2421 61.403C17.2421 60.7198 17.3656 60.0906 17.6158 59.5122C17.8628 58.9339 18.2143 58.4318 18.6703 58.0029C19.1231 57.5739 19.6551 57.2402 20.2662 57.0051C20.8774 56.7699 21.5392 56.6492 22.2549 56.6492C22.9705 56.6492 23.645 56.7667 24.2498 57.0051C24.8546 57.2402 25.3835 57.5739 25.8331 58.0029C26.2828 58.4318 26.6343 58.9339 26.8876 59.5059C27.1409 60.0779 27.2676 60.7102 27.2676 61.403C27.2676 62.0957 27.1409 62.7185 26.8876 63.3C26.6343 63.8815 26.2828 64.3868 25.8331 64.8094C25.3835 65.2352 24.8546 65.5657 24.2498 65.8008C23.645 66.036 22.9832 66.1567 22.2675 66.1567ZM22.2549 64.3455C22.6633 64.3455 23.0433 64.2756 23.3853 64.1357C23.7305 63.9959 24.0313 63.7957 24.2941 63.532C24.557 63.2682 24.7596 62.96 24.9021 62.6009C25.0446 62.2419 25.1175 61.8446 25.1175 61.4061C25.1175 60.9676 25.0446 60.5704 24.9021 60.2113C24.7596 59.8523 24.557 59.5408 24.3005 59.2803C24.044 59.0165 23.74 58.8163 23.3917 58.6765C23.0433 58.5367 22.6633 58.4668 22.2549 58.4668C21.8464 58.4668 21.4664 58.5367 21.1244 58.6765C20.7792 58.8163 20.4784 59.0165 20.2156 59.2803C19.9527 59.544 19.7501 59.8523 19.6076 60.2113C19.4651 60.5704 19.3922 60.9676 19.3922 61.4061C19.3922 61.8446 19.4651 62.2323 19.6076 62.5946C19.7501 62.9568 19.9527 63.2714 20.2092 63.532C20.4657 63.7957 20.7697 63.9959 21.118 64.1357C21.4664 64.2756 21.8464 64.3455 22.2549 64.3455Z" fill="white"/>
<path d="M36.7104 65.9979V56.8081H38.4647L42.3628 63.2937H41.435L45.2697 56.8081H47.0082L47.0335 65.9979H45.0449L45.0322 59.8682H45.3995L42.3374 65.0287H41.3811L38.2557 59.8682H38.699V65.9979H36.7104Z" fill="white"/>
<path d="M57.0527 65.9979V56.8081H61.0173C61.8374 56.8081 62.5436 56.9416 63.1357 57.2085C63.7279 57.4754 64.187 57.8567 64.51 58.3588C64.833 58.8609 64.9945 59.4519 64.9945 60.1446C64.9945 60.8374 64.833 61.4189 64.51 61.9178C64.187 62.4167 63.7279 62.8012 63.1357 63.0681C62.5436 63.335 61.8374 63.4685 61.0173 63.4685H58.2306L59.1711 62.5088V66.0011H57.0527V65.9979ZM59.1711 62.7408L58.2306 61.7303H60.9001C61.5556 61.7303 62.0432 61.5905 62.3662 61.3108C62.6892 61.0312 62.8507 60.6404 62.8507 60.1415C62.8507 59.6426 62.6892 59.239 62.3662 58.9594C62.0432 58.6797 61.5556 58.5399 60.9001 58.5399H58.2306L59.1711 57.5294V62.7408Z" fill="white"/>
<path d="M76.4544 64.2915H81.4387V65.9979H74.3486V56.8081H81.2708V58.5145H76.4576V64.2915H76.4544ZM76.2961 60.5101H80.704V62.1656H76.2961V60.5101Z" fill="white"/>
<path d="M92.8733 65.9979V58.5399H89.9442V56.8081H97.924V58.5399H94.9949V65.9979H92.8764H92.8733Z" fill="white"/>
<path d="M106.914 65.9979V56.8081H109.032V65.9979H106.914Z" fill="white"/>
<path d="M120.952 65.9979V58.5399H118.022V56.8081H126.002V58.5399H123.073V65.9979H120.955H120.952Z" fill="white"/>
<path d="M134.989 65.9979V56.8081H137.107V65.9979H134.989Z" fill="white"/>
<path d="M151.576 66.1567C150.851 66.1567 150.182 66.0392 149.568 65.8008C148.954 65.5625 148.422 65.232 147.972 64.803C147.522 64.3741 147.174 63.872 146.924 63.2937C146.677 62.7153 146.55 62.0861 146.55 61.403C146.55 60.7198 146.674 60.0906 146.924 59.5122C147.174 58.9339 147.522 58.4318 147.978 58.0029C148.431 57.5739 148.963 57.2402 149.574 57.0051C150.186 56.7699 150.847 56.6492 151.563 56.6492C152.279 56.6492 152.953 56.7667 153.558 57.0051C154.163 57.2402 154.692 57.5739 155.141 58.0029C155.591 58.4318 155.942 58.9339 156.196 59.5059C156.449 60.0779 156.576 60.7102 156.576 61.403C156.576 62.0957 156.449 62.7185 156.196 63.3C155.942 63.8815 155.591 64.3868 155.141 64.8094C154.692 65.2352 154.166 65.5657 153.558 65.8008C152.95 66.036 152.291 66.1567 151.576 66.1567ZM151.563 64.3455C151.972 64.3455 152.352 64.2756 152.694 64.1357C153.036 63.9959 153.343 63.7957 153.602 63.532C153.865 63.2682 154.068 62.96 154.21 62.6009C154.353 62.2419 154.426 61.8446 154.426 61.4061C154.426 60.9676 154.353 60.5704 154.21 60.2113C154.068 59.8523 153.865 59.5408 153.609 59.2803C153.352 59.0165 153.048 58.8163 152.7 58.6765C152.352 58.5367 151.972 58.4668 151.563 58.4668C151.155 58.4668 150.775 58.5367 150.433 58.6765C150.087 58.8163 149.787 59.0165 149.524 59.2803C149.261 59.544 149.058 59.8523 148.916 60.2113C148.773 60.5704 148.7 60.9676 148.7 61.4061C148.7 61.8446 148.773 62.2323 148.916 62.5946C149.058 62.9568 149.261 63.2714 149.517 63.532C149.774 63.7957 150.078 63.9959 150.426 64.1357C150.775 64.2756 151.155 64.3455 151.563 64.3455Z" fill="white"/>
<path d="M166.019 65.9979V56.8081H167.773L173.175 63.424H172.323V56.8081H174.416V65.9979H172.675L167.26 59.382H168.112V65.9979H166.019Z" fill="white"/>
<path d="M195.338 65.9979V64.6188L198.872 61.2695C199.151 61.0153 199.357 60.7897 199.486 60.5863C199.616 60.3861 199.708 60.2018 199.756 60.0366C199.803 59.8713 199.828 59.7188 199.828 59.5758C199.828 59.2072 199.705 58.9276 199.455 58.7274C199.208 58.5304 198.84 58.4318 198.362 58.4318C197.979 58.4318 197.624 58.5049 197.295 58.6543C196.969 58.8036 196.69 59.0356 196.465 59.3502L194.92 58.3524C195.268 57.8281 195.756 57.4118 196.386 57.1036C197.013 56.7985 197.738 56.6428 198.559 56.6428C199.239 56.6428 199.835 56.754 200.345 56.9765C200.854 57.1989 201.25 57.5135 201.535 57.9139C201.817 58.3174 201.96 58.7973 201.96 59.3565C201.96 59.6552 201.921 59.9508 201.849 60.2431C201.776 60.5355 201.627 60.8437 201.405 61.1678C201.184 61.4919 200.858 61.8542 200.43 62.2577L197.501 65.0287L197.096 64.2533H202.263V65.9851H195.341L195.338 65.9979Z" fill="white"/>
<path d="M214.911 66.1567C214.16 66.1567 213.489 65.9692 212.897 65.5975C212.305 65.2257 211.836 64.6855 211.497 63.9769C211.158 63.2682 210.987 62.4103 210.987 61.403C210.987 60.3956 211.158 59.5377 211.497 58.829C211.836 58.1204 212.305 57.5802 212.897 57.2084C213.489 56.8367 214.16 56.6492 214.911 56.6492C215.661 56.6492 216.342 56.8367 216.931 57.2084C217.52 57.5802 217.986 58.1204 218.325 58.829C218.663 59.5377 218.834 60.3956 218.834 61.403C218.834 62.4103 218.663 63.2682 218.325 63.9769C217.986 64.6855 217.52 65.2257 216.931 65.5975C216.342 65.9692 215.668 66.1567 214.911 66.1567ZM214.911 64.3582C215.269 64.3582 215.579 64.2565 215.845 64.0563C216.111 63.8561 216.32 63.5352 216.472 63.0966C216.624 62.6581 216.7 62.0957 216.7 61.403C216.7 60.7102 216.624 60.1478 216.472 59.7093C216.32 59.2707 216.111 58.953 215.845 58.7496C215.579 58.5462 215.269 58.4477 214.911 58.4477C214.553 58.4477 214.255 58.5494 213.989 58.7496C213.723 58.9498 213.514 59.2707 213.362 59.7093C213.21 60.1478 213.134 60.7102 213.134 61.403C213.134 62.0957 213.21 62.6581 213.362 63.0966C213.514 63.5352 213.723 63.8529 213.989 64.0563C214.255 64.2565 214.563 64.3582 214.911 64.3582Z" fill="white"/>
<path d="M227.587 65.9979V64.6188L231.121 61.2695C231.399 61.0153 231.605 60.7897 231.735 60.5863C231.865 60.3861 231.957 60.2018 232.004 60.0366C232.052 59.8713 232.077 59.7188 232.077 59.5758C232.077 59.2072 231.954 58.9276 231.703 58.7274C231.456 58.5304 231.089 58.4318 230.611 58.4318C230.228 58.4318 229.873 58.5049 229.544 58.6543C229.218 58.8036 228.939 59.0356 228.714 59.3502L227.169 58.3524C227.517 57.8281 228.005 57.4118 228.635 57.1036C229.262 56.7985 229.987 56.6428 230.807 56.6428C231.488 56.6428 232.083 56.754 232.593 56.9765C233.103 57.1989 233.499 57.5135 233.784 57.9139C234.066 58.3174 234.208 58.7973 234.208 59.3565C234.208 59.6552 234.17 59.9508 234.097 60.2431C234.025 60.5355 233.876 60.8437 233.654 61.1678C233.432 61.4919 233.106 61.8542 232.679 62.2577L229.75 65.0287L229.344 64.2533H234.512V65.9851H227.59L227.587 65.9979Z" fill="white"/>
<path d="M246.203 66.1568C245.567 66.1568 244.933 66.071 244.306 65.8994C243.679 65.7278 243.147 65.4863 242.71 65.1717L243.534 63.5447C243.882 63.799 244.287 63.9992 244.75 64.1485C245.212 64.2979 245.678 64.3709 246.149 64.3709C246.681 64.3709 247.099 64.2661 247.407 64.0563C247.711 63.8466 247.866 63.5575 247.866 63.1888C247.866 62.8202 247.73 62.5628 247.46 62.3627C247.191 62.1625 246.754 62.0608 246.153 62.0608H245.184V60.6562L247.736 57.755L247.97 58.5177H243.17V56.8113H249.579V58.1904L247.039 61.0916L245.966 60.4751H246.58C247.704 60.4751 248.556 60.7293 249.132 61.2378C249.709 61.7462 249.997 62.3976 249.997 63.1952C249.997 63.7132 249.861 64.1962 249.592 64.6474C249.322 65.0986 248.908 65.464 248.35 65.7437C247.793 66.0233 247.077 66.1631 246.203 66.1631V66.1568Z" fill="white"/>
</g>
<defs>
<clipPath id="clip0_3674_2113">
<rect width="250" height="66" fill="white" transform="translate(0 0.156738)"/>
</clipPath>
</defs>
</svg>
