<svg width="21" height="22" viewBox="0 0 21 22" fill="none" xmlns="http://www.w3.org/2000/svg">
<path d="M20.4691 2.65674L20.968 2.62366C20.9547 2.42309 20.8226 2.24998 20.6327 2.18424C20.4427 2.11849 20.2319 2.1729 20.0974 2.32234L20.4691 2.65674ZM19.5428 6.88374C19.5428 6.6076 19.3189 6.38374 19.0428 6.38374C18.7666 6.38374 18.5428 6.6076 18.5428 6.88374H19.5428ZM10.5 8.15674V8.65674H11V8.15674H10.5ZM1.92637 2.65674L2.39462 2.48141C2.32485 2.29508 2.15124 2.16784 1.95255 2.15742C1.75385 2.14701 1.56789 2.25539 1.47902 2.43341L1.92637 2.65674ZM7.5 15.6567L7.85383 16.01C7.97619 15.8875 8.02642 15.7103 7.98661 15.5418C7.94679 15.3732 7.8226 15.2373 7.65833 15.1825L7.5 15.6567ZM0.5 18.371V17.871C0.279732 17.871 0.0854109 18.0152 0.0215057 18.226C-0.0423996 18.4368 0.0391667 18.6645 0.222353 18.7869L0.5 18.371ZM17.9515 4.04728L17.5806 4.38262L17.7608 4.58187L18.0264 4.54164L17.9515 4.04728ZM19.9702 2.68982C20.0446 3.81173 19.9783 4.52069 19.7838 5.06917C19.5929 5.60721 19.2609 6.04093 18.6968 6.58144L19.3887 7.30346C20.0033 6.71454 20.4605 6.15244 20.7262 5.4035C20.9882 4.66501 21.0458 3.79583 20.968 2.62366L19.9702 2.68982ZM19.5428 7.92458V6.94245H18.5428V7.92458H19.5428ZM19.5428 6.94245V6.88374H18.5428V6.94245H19.5428ZM10 7.15674V8.15674H11V7.15674H10ZM14.8223 2.15674C12.125 2.15674 10 4.50739 10 7.15674H11C11 5.00737 12.7282 3.15674 14.8223 3.15674V2.15674ZM18.5428 7.92458C18.5428 14.2167 13.2624 19.6567 7 19.6567V20.6567C13.8342 20.6567 19.5428 14.7493 19.5428 7.92458H18.5428ZM1.45811 2.83206C2.22305 4.87504 5.10161 8.65674 10.5 8.65674V7.65674C5.62855 7.65674 3.05605 4.24796 2.39462 2.48141L1.45811 2.83206ZM1.47902 2.43341C0.00554863 5.3849 -0.242404 8.25389 0.775073 10.6888C1.79256 13.1237 4.03467 15.027 7.34167 16.131L7.65833 15.1825C4.54668 14.1436 2.57561 12.404 1.69776 10.3032C0.819895 8.20244 0.994452 5.64287 2.37372 2.88007L1.47902 2.43341ZM7.14617 15.3035C6.26646 16.1845 3.76165 17.871 0.5 17.871V18.871C4.08491 18.871 6.83174 17.0337 7.85383 16.01L7.14617 15.3035ZM18.3224 3.71194C17.4594 2.75758 16.2107 2.15674 14.8223 2.15674V3.15674C15.916 3.15674 16.8991 3.62888 17.5806 4.38262L18.3224 3.71194ZM18.0264 4.54164C19.0619 4.38482 20.0775 3.83966 20.8409 2.99114L20.0974 2.32234C19.4829 3.00545 18.6743 3.43211 17.8766 3.55292L18.0264 4.54164ZM0.222353 18.7869C2.47016 20.2877 4.63313 20.6567 7 20.6567V19.6567C4.75713 19.6567 2.80895 19.3115 0.777647 17.9552L0.222353 18.7869Z" fill="#F2F2F2"/>
</svg>
